<mxfile>
    <diagram id="cDdLw2rSKDqUq0j_kSJk" name="Page-1">
        <mxGraphModel dx="657" dy="571" grid="0" gridSize="10" guides="1" tooltips="1" connect="1" arrows="1" fold="1" page="1" pageScale="1" pageWidth="827" pageHeight="1169" math="0" shadow="0">
            <root>
                <mxCell id="0"/>
                <mxCell id="1" parent="0"/>
                <mxCell id="xgvbz5kUbs7I0Mx6iPHN-7" style="edgeStyle=orthogonalEdgeStyle;rounded=0;orthogonalLoop=1;jettySize=auto;html=1;entryX=0;entryY=0.5;entryDx=0;entryDy=0;endArrow=none;endFill=0;" parent="1" source="xgvbz5kUbs7I0Mx6iPHN-1" target="xgvbz5kUbs7I0Mx6iPHN-2" edge="1">
                    <mxGeometry relative="1" as="geometry">
                        <Array as="points">
                            <mxPoint x="207" y="257"/>
                        </Array>
                    </mxGeometry>
                </mxCell>
                <mxCell id="xgvbz5kUbs7I0Mx6iPHN-1" value="Cliente" style="rounded=1;whiteSpace=wrap;html=1;fontColor=#FFFFFF;fillColor=#2E2E2E;rotation=0;" parent="1" vertex="1">
                    <mxGeometry x="141.5" y="227" width="120" height="60" as="geometry"/>
                </mxCell>
                <mxCell id="xgvbz5kUbs7I0Mx6iPHN-12" style="edgeStyle=orthogonalEdgeStyle;rounded=1;orthogonalLoop=1;jettySize=auto;html=1;entryX=0;entryY=0.5;entryDx=0;entryDy=0;endArrow=none;endFill=0;strokeWidth=3;" parent="1" source="xgvbz5kUbs7I0Mx6iPHN-2" target="xgvbz5kUbs7I0Mx6iPHN-10" edge="1">
                    <mxGeometry relative="1" as="geometry"/>
                </mxCell>
                <mxCell id="9bPiyDGgQOnH3WQYUDbO-2" style="edgeStyle=orthogonalEdgeStyle;rounded=0;orthogonalLoop=1;jettySize=auto;html=1;entryX=0.5;entryY=1;entryDx=0;entryDy=0;endArrow=none;endFill=0;" parent="1" source="xgvbz5kUbs7I0Mx6iPHN-2" target="9bPiyDGgQOnH3WQYUDbO-1" edge="1">
                    <mxGeometry relative="1" as="geometry"/>
                </mxCell>
                <mxCell id="xgvbz5kUbs7I0Mx6iPHN-2" value="Acesso" style="rounded=1;whiteSpace=wrap;html=1;fontColor=#FFFFFF;fillColor=#2E2E2E;rotation=0;" parent="1" vertex="1">
                    <mxGeometry x="351" y="227" width="120" height="60" as="geometry"/>
                </mxCell>
                <mxCell id="xgvbz5kUbs7I0Mx6iPHN-4" value="idCliente &lt;int&gt;&#10;cnpj &lt;varchar&gt;&#10;nome &lt;varchar&gt;&#10;email &lt;varchar&gt;&#10;senha &lt;varchar&gt;&#10;cep &lt;varchar&gt;&#10;numero &lt;int&gt;&#10;dataNasc &lt;date&gt;&#10;dataCriacao &lt;datetime&gt;&#10;" style="text;strokeColor=none;fillColor=none;align=left;verticalAlign=top;spacingLeft=4;spacingRight=4;overflow=hidden;rotatable=0;points=[[0,0.5],[1,0.5]];portConstraint=eastwest;" parent="1" vertex="1">
                    <mxGeometry x="136" y="287" width="140" height="150" as="geometry"/>
                </mxCell>
                <mxCell id="xgvbz5kUbs7I0Mx6iPHN-6" value="idEntrada &lt;int&gt;&#10;dataHoraEntrada &lt;datetime&gt;&#10;dataHoraSaida &lt;datetime&gt;&#10;statusSaida &lt;int&gt;&#10;paginaSaida &lt;int&gt;&#10;renda &lt;double&gt;&#10;valorImovel &lt;double&gt;&#10;tempoFinanciamento &lt;int&gt;&#10;porcentagemRenda &lt;int&gt;&#10;bancoEscolhido &lt;int&gt;&#10;fkRegiao &lt;int&gt;&#10;fkCliente &lt;int&gt;" style="text;strokeColor=none;fillColor=none;align=left;verticalAlign=top;spacingLeft=4;spacingRight=4;overflow=hidden;rotatable=0;points=[[0,0.5],[1,0.5]];portConstraint=eastwest;" parent="1" vertex="1">
                    <mxGeometry x="343" y="287" width="172" height="179" as="geometry"/>
                </mxCell>
                <mxCell id="xgvbz5kUbs7I0Mx6iPHN-10" value="Avaliacao" style="rounded=1;whiteSpace=wrap;html=1;fontColor=#FFFFFF;fillColor=#2E2E2E;rotation=0;" parent="1" vertex="1">
                    <mxGeometry x="547" y="227" width="120" height="60" as="geometry"/>
                </mxCell>
                <mxCell id="xgvbz5kUbs7I0Mx6iPHN-11" value="idAvaliacao &lt;int&gt;&#10;avalPositivo &lt;int&gt;&#10;feedbackAval &lt;varchar&gt;&#10;dataAval &lt;datetime&gt;&#10;fkAcesso &lt;int&gt;&#10;" style="text;strokeColor=none;fillColor=none;align=left;verticalAlign=top;spacingLeft=4;spacingRight=4;overflow=hidden;rotatable=0;points=[[0,0.5],[1,0.5]];portConstraint=eastwest;" parent="1" vertex="1">
                    <mxGeometry x="539.75" y="287" width="152.25" height="140" as="geometry"/>
                </mxCell>
                <mxCell id="xgvbz5kUbs7I0Mx6iPHN-13" value="(1,1)" style="text;html=1;align=center;verticalAlign=middle;resizable=0;points=[];autosize=1;" parent="1" vertex="1">
                    <mxGeometry x="261.5" y="227" width="35" height="18" as="geometry"/>
                </mxCell>
                <mxCell id="xgvbz5kUbs7I0Mx6iPHN-14" value="(1,N)" style="text;html=1;align=center;verticalAlign=middle;resizable=0;points=[];autosize=1;" parent="1" vertex="1">
                    <mxGeometry x="314" y="227" width="37" height="18" as="geometry"/>
                </mxCell>
                <mxCell id="xgvbz5kUbs7I0Mx6iPHN-15" value="(0,1)" style="text;html=1;align=center;verticalAlign=middle;resizable=0;points=[];autosize=1;" parent="1" vertex="1">
                    <mxGeometry x="512" y="227" width="35" height="18" as="geometry"/>
                </mxCell>
                <mxCell id="xgvbz5kUbs7I0Mx6iPHN-16" value="(1,1)" style="text;html=1;align=center;verticalAlign=middle;resizable=0;points=[];autosize=1;" parent="1" vertex="1">
                    <mxGeometry x="471" y="227" width="35" height="18" as="geometry"/>
                </mxCell>
                <mxCell id="9bPiyDGgQOnH3WQYUDbO-1" value="Regiao" style="rounded=1;whiteSpace=wrap;html=1;fillColor=#2E2E2E;fontColor=#FFFFFF;rotation=0;" parent="1" vertex="1">
                    <mxGeometry x="351" y="81" width="120" height="60" as="geometry"/>
                </mxCell>
                <mxCell id="9bPiyDGgQOnH3WQYUDbO-3" value="idRegiao &lt;int&gt;&#10;descricaoRegiao &lt;varchar&gt;&#10;valorRegiao &lt;int&gt;&#10;dataCraw &lt;datetime&gt;&#10;" style="text;strokeColor=none;fillColor=none;align=left;verticalAlign=top;spacingLeft=4;spacingRight=4;overflow=hidden;rotatable=0;points=[[0,0.5],[1,0.5]];portConstraint=eastwest;" parent="1" vertex="1">
                    <mxGeometry x="474" y="79" width="166" height="66" as="geometry"/>
                </mxCell>
                <mxCell id="hDBsgHGtiZ5LF0jWpCiP-1" value="(1,N)" style="text;html=1;align=center;verticalAlign=middle;resizable=0;points=[];autosize=1;" parent="1" vertex="1">
                    <mxGeometry x="373" y="207" width="37" height="18" as="geometry"/>
                </mxCell>
                <mxCell id="hDBsgHGtiZ5LF0jWpCiP-2" value="(1,1)" style="text;html=1;align=center;verticalAlign=middle;resizable=0;points=[];autosize=1;" parent="1" vertex="1">
                    <mxGeometry x="375" y="145" width="35" height="18" as="geometry"/>
                </mxCell>
            </root>
        </mxGraphModel>
    </diagram>
</mxfile>